<svg id="visual" viewBox="0 0 1920 1080" width="1920" height="1080" xmlns="http://www.w3.org/2000/svg" xmlns:xlink="http://www.w3.org/1999/xlink" version="1.1"><rect x="0" y="0" width="1920" height="1080" fill="#16213E"></rect><path d="M0 314L26.7 327.2C53.3 340.3 106.7 366.7 160 364C213.3 361.3 266.7 329.7 320 305.5C373.3 281.3 426.7 264.7 480 270C533.3 275.3 586.7 302.7 640 309.8C693.3 317 746.7 304 800 300.3C853.3 296.7 906.7 302.3 960 293C1013.3 283.7 1066.7 259.3 1120 258.2C1173.3 257 1226.7 279 1280 305.5C1333.3 332 1386.7 363 1440 377.2C1493.3 391.3 1546.7 388.7 1600 368.5C1653.3 348.3 1706.7 310.7 1760 300.2C1813.3 289.7 1866.7 306.3 1893.3 314.7L1920 323L1920 0L1893.3 0C1866.7 0 1813.3 0 1760 0C1706.7 0 1653.3 0 1600 0C1546.7 0 1493.3 0 1440 0C1386.7 0 1333.3 0 1280 0C1226.7 0 1173.3 0 1120 0C1066.7 0 1013.3 0 960 0C906.7 0 853.3 0 800 0C746.7 0 693.3 0 640 0C586.7 0 533.3 0 480 0C426.7 0 373.3 0 320 0C266.7 0 213.3 0 160 0C106.7 0 53.3 0 26.7 0L0 0Z" fill="#fa7268"></path><path d="M0 159L26.7 167.2C53.3 175.3 106.7 191.7 160 212C213.3 232.3 266.7 256.7 320 262.2C373.3 267.7 426.7 254.3 480 234.8C533.3 215.3 586.7 189.7 640 176.3C693.3 163 746.7 162 800 173.7C853.3 185.3 906.7 209.7 960 211C1013.3 212.3 1066.7 190.7 1120 181.8C1173.3 173 1226.7 177 1280 196.5C1333.3 216 1386.7 251 1440 255.7C1493.3 260.3 1546.7 234.7 1600 231.3C1653.3 228 1706.7 247 1760 245.5C1813.3 244 1866.7 222 1893.3 211L1920 200L1920 0L1893.3 0C1866.7 0 1813.3 0 1760 0C1706.7 0 1653.3 0 1600 0C1546.7 0 1493.3 0 1440 0C1386.7 0 1333.3 0 1280 0C1226.7 0 1173.3 0 1120 0C1066.7 0 1013.3 0 960 0C906.7 0 853.3 0 800 0C746.7 0 693.3 0 640 0C586.7 0 533.3 0 480 0C426.7 0 373.3 0 320 0C266.7 0 213.3 0 160 0C106.7 0 53.3 0 26.7 0L0 0Z" fill="#e34c67"></path><path d="M0 113L26.7 112.3C53.3 111.7 106.7 110.3 160 106C213.3 101.7 266.7 94.3 320 91C373.3 87.7 426.7 88.3 480 97.2C533.3 106 586.7 123 640 136C693.3 149 746.7 158 800 149.2C853.3 140.3 906.7 113.7 960 114C1013.3 114.3 1066.7 141.7 1120 153.7C1173.3 165.7 1226.7 162.3 1280 151.2C1333.3 140 1386.7 121 1440 123.3C1493.3 125.7 1546.7 149.3 1600 149C1653.3 148.7 1706.7 124.3 1760 114C1813.3 103.7 1866.7 107.3 1893.3 109.2L1920 111L1920 0L1893.3 0C1866.7 0 1813.3 0 1760 0C1706.7 0 1653.3 0 1600 0C1546.7 0 1493.3 0 1440 0C1386.7 0 1333.3 0 1280 0C1226.7 0 1173.3 0 1120 0C1066.7 0 1013.3 0 960 0C906.7 0 853.3 0 800 0C746.7 0 693.3 0 640 0C586.7 0 533.3 0 480 0C426.7 0 373.3 0 320 0C266.7 0 213.3 0 160 0C106.7 0 53.3 0 26.7 0L0 0Z" fill="#c62368"></path></svg>